<?xml version="1.0" encoding="utf-8"?>
<!-- Generator: Adobe Illustrator 18.1.1, SVG Export Plug-In . SVG Version: 6.00 Build 0)  -->
<svg version="1.1" id="Layer_3" xmlns="http://www.w3.org/2000/svg" xmlns:xlink="http://www.w3.org/1999/xlink" x="0px" y="0px"
	 viewBox="0 525.6 595.3 316.3" enable-background="new 0 525.6 595.3 316.3" xml:space="preserve">
<path fill="#E0E0E0" d="M348.2,678.6c-0.2-2-0.3-4.1-0.3-6.2c0-4.2,0.4-8.3,1.1-12.3V529.6H249v149H348.2z"/>
<path fill="#C6CDC7" d="M351.5,681.6H246v-155h106l0,134c-0.7,4-1.1,8-1.1,11.8c0,2,0.1,4,0.3,5.9L351.5,681.6z M252,675.6h93
	c0-1.1-0.1-2.1-0.1-3.2c0-4.1,0.4-8.3,1.1-12.6V532.6h-94V675.6z"/>
<path fill="#E6E7E8" d="M349,736.7c8,59.1,58.7,104.7,120,104.7c64.1,0,116.6-49.8,120.8-112.9H349V736.7z"/>
<path fill="#C6CDC7" d="M469,844.4c-61.8,0-114.7-46.1-123-107.3l0-0.4v-11.2h247l-0.2,3.2C588.5,793.6,534.1,844.4,469,844.4z
	 M352,736.5c8,58.1,58.2,101.9,117,101.9c60.9,0,111.9-46.7,117.5-106.9H352V736.5z"/>
<path fill="#C6CDC7" d="M352,731.6h-6.6l-0.2-2.8c-0.2-2.8-0.3-5.6-0.3-8.4c0-5.5,0.4-10.9,1.1-16.8l6,0.4V731.6z"/>
<rect x="249" y="678.6" fill="#E6E7E8" width="100" height="50"/>
<path fill="#C6CDC7" d="M352,731.6H246v-56h106V731.6z M252,725.6h94v-44h-94V725.6z"/>
<polygon fill="#E6E7E8" points="534.9,529.6 532,540.1 515.5,540.1 512.6,529.6 349,529.6 349,669.3 358.9,672.4 358.9,691.6 
	349,694.7 349,704 349,728.6 458.6,728.6 461,719.8 477.5,719.8 479.9,728.6 589.8,728.6 590.3,728.6 590.3,529.6 "/>
<path fill="#C6CDC7" d="M593.3,731.6H477.6l-2.4-8.8h-11.9l-2.4,8.8H346v-39.1l9.9-3.1v-14.8l-9.9-3.1V526.6h168.9l2.9,10.5h11.9
	l2.9-10.5h60.7V731.6z M482.2,725.6h105.1v-193h-50.1l-2.9,10.5h-21.1l-2.9-10.5H352v134.5l9.9,3.1v23.6l-9.9,3.1v28.7h104.3
	l2.4-8.8h21.1L482.2,725.6z"/>
<polygon fill="#E6E7E8" points="240.5,672.4 249,669.7 249,529.6 78.4,529.6 75.5,540.1 59,540.1 56.1,529.6 6.1,529.6 6.1,704 
	51,704 51,728.6 99.1,728.6 101,721.6 117.5,721.6 119.4,728.6 124.5,728.6 249,728.6 249,694.3 240.5,691.6 "/>
<path fill="#C6CDC7" d="M252,731.6H117.1l-1.9-7h-11.9l-1.9,7H48V707H3.1V526.6h55.3l2.9,10.5h11.9l2.9-10.5H252v145.3l-8.5,2.7
	v14.8l8.5,2.7V731.6z M121.7,725.6H246v-29.1l-8.5-2.7v-23.6l8.5-2.7V532.6H80.7l-2.9,10.5H56.7l-2.9-10.5H9.1V701H54v24.6h42.8
	l1.9-7h21.1L121.7,725.6z"/>
<polygon fill="#E6E7E8" points="124.5,804.6 249,818.6 249,738.6 249,728.6 124.5,728.6 "/>
<path fill="#C6CDC7" d="M252,821.9l-130.5-14.7v-81.7H252V821.9z M127.5,801.9L246,815.2v-83.6H127.5V801.9z"/>
<g>
	<rect x="102.5" y="577.1" fill="#CDCCCC" width="21" height="22.7"/>
	<rect x="14.3" y="550" fill="#CDCCCC" width="10" height="93"/>
	<rect x="51.5" y="656" fill="#CDCCCC" width="15.3" height="13.3"/>
	<rect x="76.3" y="656" fill="#CDCCCC" width="10.2" height="13.3"/>
	<path fill="#CDCCCC" d="M33,656v2.7v0.6c0,0.5-0.6,1.1-1.1,1.1H24v8.8h15.7v-11.8c-1.6-0.2-3.4-0.7-5-1.5H33z"/>
	<path fill="#CDCCCC" d="M41.7,657.9v11.3h8.3v-13.2c-2.4,1.2-5.1,1.9-7.6,1.9C42.1,658,41.7,658,41.7,657.9z"/>
	<rect x="68.4" y="656" fill="#CDCCCC" width="5.9" height="13.3"/>
	<rect x="88.5" y="656" fill="#CDCCCC" width="5.9" height="13.3"/>
	<path fill="#CDCCCC" d="M22.4,659.3c0-0.5,0.2-0.9,0.7-0.9H31v-0.8v-1.2h-7.9c-0.5,0-0.7-0.4-0.7-0.9v-4.3h-9v18.9h9V659.3z"/>
	<path fill="#CDCCCC" d="M33.9,634.1c0.6-0.9,1-1.8,2.2-2.4v-32.3H33v35.3h0.4C33.5,634.3,33.8,634.3,33.9,634.1z"/>
	<path fill="#CDCCCC" d="M51.5,634.7h41.3v-41h-46V631C48.3,631.8,50.3,633.1,51.5,634.7z"/>
	<rect x="130.5" y="656" fill="#CDCCCC" width="29.5" height="12"/>
	<rect x="211.2" y="656" fill="#CDCCCC" width="20.1" height="12"/>
	<rect x="144.3" y="593.8" fill="#CDCCCC" width="7.5" height="7.2"/>
	<rect x="131.7" y="593.8" fill="#CDCCCC" width="10.6" height="7.2"/>
	<rect x="153.7" y="593.8" fill="#CDCCCC" width="9.4" height="7.2"/>
	<rect x="131.7" y="537.2" fill="#CDCCCC" width="17.7" height="13.3"/>
	<path fill="#CDCCCC" d="M151,551.3c0,0.5-0.3,1.1-0.8,1.1H150h-18.3v23.7h11.6h0.1h9.3h0.1h11h0.1h12.2v-38.9H151V551.3z"/>
	<path fill="#888585" d="M163.9,576.1C163.9,576.1,163.9,576.1,163.9,576.1L163.9,576.1C163.8,576.1,163.8,576.1,163.9,576.1z"/>
	<rect x="144.3" y="577.7" fill="#CDCCCC" width="7.5" height="6"/>
	<rect x="131.7" y="577.7" fill="#CDCCCC" width="10.6" height="6"/>
	<rect x="153.7" y="577.7" fill="#CDCCCC" width="9.4" height="6"/>
	<path fill="#CDCCCC" d="M209.2,668v-12h-14.7c-0.1,0-0.3-0.2-0.3-0.2V668H209.2z"/>
	<path fill="#888585" d="M193.1,653.9C193.1,653.9,193.1,653.9,193.1,653.9c0,0-0.1,0-0.1,0c-0.3,0.1-0.5,0.3-0.7,0.6
		c0.1-0.1,0.2-0.3,0.4-0.4C192.8,654.1,192.9,654,193.1,653.9z"/>
	<path fill="#CDCCCC" d="M172.9,656h-11.3v12h30.7v-11c-2.4,2.3-5.6,3.6-8.7,3.6C178.8,660.7,175.2,658,172.9,656z"/>
	<path fill="#CDCCCC" d="M174.6,634.1c0.7-0.8,1.2-1.7,2.4-2.3v-12.4h-12.2v15.3h9.3C174.2,634.7,174.4,634.3,174.6,634.1z"/>
	<path fill="#CDCCCC" d="M176.7,597.5c-1.1-1-2.2-2.1-3-3.7h-9.1v7.9v0.3v6.7h12L176.7,597.5z"/>
	<polygon fill="#CDCCCC" points="163.2,609.6 163.2,609.5 163.2,602.6 152.8,602.6 152.7,602.6 143.4,602.6 143.3,602.6 
		131.7,602.6 131.7,634.7 163.2,634.7 163.2,618.5 163.2,617.9 	"/>
	<polygon fill="#CDCCCC" points="164.7,610.6 164.7,617.5 164.8,617.5 176.9,617.5 176.9,610.6 	"/>
	<path fill="#CDCCCC" d="M164.7,583.7h9.3c0.6-1.6,1-3.1,2.1-4.1v-1.9h-11.4V583.7z"/>
	<path fill="#CDCCCC" d="M208.8,544.3v-7.2h-30.7v39.7v1.6c1.6-1,3.6-1.5,5.6-1.5c6,0,10.8,5.1,10.8,11.4c0,4.5-2.6,8.5-6.5,10.3
		V631c2.8,1,5,3.3,6.1,4.5h35.2v-17.1c0-0.5,0.5-1,1-1h10.4v-72.3h-31C209.1,545.2,208.8,544.8,208.8,544.3z"/>
</g>
</svg>
