<?xml version="1.0" encoding="utf-8"?>
<!-- Generator: Adobe Illustrator 18.1.1, SVG Export Plug-In . SVG Version: 6.00 Build 0)  -->
<svg version="1.1" id="Layer_1" xmlns="http://www.w3.org/2000/svg" xmlns:xlink="http://www.w3.org/1999/xlink" x="0px" y="0px"
	 viewBox="0 0 595.3 345.7" enable-background="new 0 0 595.3 345.7" xml:space="preserve">
<rect x="3.6" y="3.7" fill="#C7C7C9" width="589.2" height="339.6"/>
<path fill="#959597" d="M595.3,345.7H1.1V1.2h594.1V345.7z M6.1,340.8h584.2V6.1H6.1V340.8z"/>
<rect x="234.8" y="111.5" fill="#D7D7DC" width="53.3" height="56.5"/>
<rect x="10.4" y="43.9" fill="#D7D7DC" width="25.5" height="231.6"/>
<rect x="105" y="303.9" fill="#D7D7DC" width="39" height="33"/>
<rect x="168" y="303.9" fill="#D7D7DC" width="26" height="33"/>
<path fill="#D7D7DC" d="M58,303.9v6.7v1.6c0,1.3-1.5,2.7-2.8,2.7H35v22h40v-29.3c-4-0.5-8.6-1.7-12.7-3.7H58z"/>
<path fill="#D7D7DC" d="M80,308.7v28.2h21v-32.8c-6,3-13,4.8-19.3,4.8C81.1,308.9,80,308.8,80,308.7z"/>
<rect x="148" y="303.9" fill="#D7D7DC" width="15" height="33"/>
<rect x="199" y="303.9" fill="#D7D7DC" width="15" height="33"/>
<path fill="#D7D7DC" d="M31,312.2c0-1.3,0.6-2.3,1.9-2.3H53v-2v-3H32.9c-1.3,0-1.9-1-1.9-2.3v-10.7H8v47h23V312.2z"/>
<path fill="#D7D7DC" d="M60.4,253.4c1.6-2.2,2.6-4.4,5.6-5.9v-80.6h-8v88h1C59.4,253.9,60,253.9,60.4,253.4z"/>
<path fill="#D7D7DC" d="M105.1,254.9H210v-102H93v92.8C97,247.6,101.9,250.9,105.1,254.9z"/>
<rect x="306" y="307.9" fill="#D7D7DC" width="75" height="30"/>
<rect x="511" y="307.9" fill="#D7D7DC" width="51" height="30"/>
<rect x="341" y="152.9" fill="#D7D7DC" width="19" height="18"/>
<rect x="309" y="152.9" fill="#D7D7DC" width="27" height="18"/>
<rect x="365" y="152.9" fill="#D7D7DC" width="24" height="18"/>
<rect x="309" y="11.9" fill="#D7D7DC" width="45" height="33"/>
<path fill="#D7D7DC" d="M358,47.2c0,1.3-0.7,2.7-2,2.7h-0.3H309v59h29.4h0.2h23.8h0.2h28h0.4h31v-97h-64V47.2z"/>
<path fill="#D7D7DC" d="M390.8,108.9c0.1,0,0.1,0,0.2,0h-0.4C390.7,108.9,390.7,108.9,390.8,108.9z"/>
<rect x="341" y="112.9" fill="#D7D7DC" width="19" height="15"/>
<rect x="309" y="112.9" fill="#D7D7DC" width="27" height="15"/>
<rect x="365" y="112.9" fill="#D7D7DC" width="24" height="15"/>
<path fill="#D7D7DC" d="M506,337.9v-30h-37.3c-0.2,0-0.7-0.5-0.7-0.5v30.5H506z"/>
<path fill="#D7D7DC" d="M465,302.8C465.1,302.7,465.1,302.7,465,302.8c-0.1,0-0.2,0-0.3,0c-0.7,0.3-1.4,0.9-1.7,1.6
	c0.3-0.3,0.6-0.6,0.9-0.9C464.3,303.1,464.7,302.9,465,302.8z"/>
<path fill="#D7D7DC" d="M413.7,307.9H385v30h78v-27.3c-6,5.7-14.3,9-22.2,9C428.6,319.5,419.6,312.9,413.7,307.9z"/>
<path fill="#D7D7DC" d="M418,253.5c1.8-2.1,3-4.3,6-5.8v-30.8h-31v38h23.6C417,254.9,417.6,254,418,253.5z"/>
<path fill="#D7D7DC" d="M423.5,162.1c-2.7-2.5-5.5-5.2-7.5-9.2h-23v19.6v0.8v16.6h30.6L423.5,162.1z"/>
<polygon fill="#D7D7DC" points="389,192.3 389,192.1 389,174.9 362.6,174.9 362.4,174.9 338.6,174.9 338.4,174.9 309,174.9 
	309,254.9 389,254.9 389,214.5 389,213 "/>
<polygon fill="#D7D7DC" points="393,194.9 393,211.9 393.1,211.9 424,211.9 424,194.9 "/>
<path fill="#D7D7DC" d="M393,127.9h23.6c1.4-4,2.4-7.6,5.4-10.2v-4.8h-29V127.9z"/>
<path fill="#D7D7DC" d="M505,29.7V11.9h-78v99v3.9c4-2.5,9.1-3.8,14.2-3.8c15.2,0,27.4,12.7,27.4,28.4c0,11.1-6.6,21.1-16.6,25.7
	v80.5c7,2.5,12.8,8.3,15.6,11.3H557v-42.6c0-1.3,1.3-2.4,2.7-2.4H586v-180h-78.9C505.8,31.9,505,31.1,505,29.7z"/>
</svg>
