<?xml version="1.0" encoding="utf-8"?>
<!-- Generator: Adobe Illustrator 18.1.1, SVG Export Plug-In . SVG Version: 6.00 Build 0)  -->
<svg version="1.1" id="Layer_3" xmlns="http://www.w3.org/2000/svg" xmlns:xlink="http://www.w3.org/1999/xlink" x="0px" y="0px"
	 viewBox="0 525.6 595.3 316.3" enable-background="new 0 525.6 595.3 316.3" xml:space="preserve">
<path fill="#E0E0E0" d="M348.2,678.6c-0.2-2-0.3-4.1-0.3-6.2c0-4.2,0.4-8.3,1.1-12.3V529.6H249v149H348.2z"/>
<path fill="#C6CDC7" d="M351.5,681.6H246v-155h106l0,134c-0.7,4-1.1,8-1.1,11.8c0,2,0.1,4,0.3,5.9L351.5,681.6z M252,675.6h93
	c0-1.1-0.1-2.1-0.1-3.2c0-4.1,0.4-8.3,1.1-12.6V532.6h-94V675.6z"/>
<path fill="#E6E7E8" d="M349,736.7c8,59.1,58.7,104.7,120,104.7c64.1,0,116.6-49.8,120.8-112.9H349V736.7z"/>
<path fill="#C6CDC7" d="M469,844.4c-61.8,0-114.7-46.1-123-107.3l0-0.4v-11.2h247l-0.2,3.2C588.5,793.6,534.1,844.4,469,844.4z
	 M352,736.5c8,58.1,58.2,101.9,117,101.9c60.9,0,111.9-46.7,117.5-106.9H352V736.5z"/>
<path fill="#C6CDC7" d="M352,731.6h-6.6l-0.2-2.8c-0.2-2.8-0.3-5.6-0.3-8.4c0-5.5,0.4-10.9,1.1-16.8l6,0.4V731.6z"/>
<rect x="249" y="678.6" fill="#E6E7E8" width="100" height="50"/>
<path fill="#C6CDC7" d="M352,731.6H246v-56h106V731.6z M252,725.6h94v-44h-94V725.6z"/>
<polygon fill="#E6E7E8" points="534.9,529.6 532,540.1 515.5,540.1 512.6,529.6 349,529.6 349,669.3 358.9,672.4 358.9,691.6 
	349,694.7 349,704 349,728.6 458.6,728.6 461,719.8 477.5,719.8 479.9,728.6 589.8,728.6 590.3,728.6 590.3,529.6 "/>
<path fill="#C6CDC7" d="M593.3,731.6H477.6l-2.4-8.8h-11.9l-2.4,8.8H346v-39.1l9.9-3.1v-14.8l-9.9-3.1V526.6h168.9l2.9,10.5h11.9
	l2.9-10.5h60.7V731.6z M482.2,725.6h105.1v-193h-50.1l-2.9,10.5h-21.1l-2.9-10.5H352v134.5l9.9,3.1v23.6l-9.9,3.1v28.7h104.3
	l2.4-8.8h21.1L482.2,725.6z"/>
<polygon fill="#E6E7E8" points="240.5,672.4 249,669.7 249,529.6 78.4,529.6 75.5,540.1 59,540.1 56.1,529.6 6.1,529.6 6.1,704 
	51,704 51,728.6 99.1,728.6 101,721.6 117.5,721.6 119.4,728.6 124.5,728.6 249,728.6 249,694.3 240.5,691.6 "/>
<path fill="#C6CDC7" d="M252,731.6H117.1l-1.9-7h-11.9l-1.9,7H48V707H3.1V526.6h55.3l2.9,10.5h11.9l2.9-10.5H252v145.3l-8.5,2.7
	v14.8l8.5,2.7V731.6z M121.7,725.6H246v-29.1l-8.5-2.7v-23.6l8.5-2.7V532.6H80.7l-2.9,10.5H56.7l-2.9-10.5H9.1V701H54v24.6h42.8
	l1.9-7h21.1L121.7,725.6z"/>
<polygon fill="#E6E7E8" points="124.5,804.6 249,818.6 249,738.6 249,728.6 124.5,728.6 "/>
<path fill="#C6CDC7" d="M252,821.9l-130.5-14.7v-81.7H252V821.9z M127.5,801.9L246,815.2v-83.6H127.5V801.9z"/>
</svg>
