<?xml version="1.0" encoding="utf-8"?>
<!-- Generator: Adobe Illustrator 18.1.1, SVG Export Plug-In . SVG Version: 6.00 Build 0)  -->
<svg version="1.1" xmlns="http://www.w3.org/2000/svg" xmlns:xlink="http://www.w3.org/1999/xlink" x="0px" y="0px"
	 viewBox="0 0 845 345.7" enable-background="new 0 0 845 345.7" xml:space="preserve">
<g id="Layer_1" display="none">
	<rect x="128.5" y="3.7" display="inline" fill="#C7C7C9" width="589.2" height="339.6"/>
	<path display="inline" fill="#959597" d="M720.1,345.7H126V1.2h594.1V345.7z M131,340.8h584.2V6.1H131V340.8z"/>
	<rect x="359.7" y="111.5" display="inline" fill="#D7D7DC" width="53.3" height="56.5"/>
	<rect x="135.3" y="43.9" display="inline" fill="#D7D7DC" width="25.5" height="231.6"/>
	<rect x="229.9" y="303.9" display="inline" fill="#D7D7DC" width="39" height="33"/>
	<rect x="292.9" y="303.9" display="inline" fill="#D7D7DC" width="26" height="33"/>
	<path display="inline" fill="#D7D7DC" d="M182.9,303.9v6.7v1.6c0,1.3-1.5,2.7-2.8,2.7h-20.2v22h40v-29.3c-4-0.5-8.6-1.7-12.7-3.7
		H182.9z"/>
	<path display="inline" fill="#D7D7DC" d="M204.9,308.7v28.2h21v-32.8c-6,3-13,4.8-19.3,4.8C206,308.9,204.9,308.8,204.9,308.7z"/>
	<rect x="272.9" y="303.9" display="inline" fill="#D7D7DC" width="15" height="33"/>
	<rect x="323.9" y="303.9" display="inline" fill="#D7D7DC" width="15" height="33"/>
	<path display="inline" fill="#D7D7DC" d="M155.9,312.2c0-1.3,0.6-2.3,1.9-2.3h20.1v-2v-3h-20.1c-1.3,0-1.9-1-1.9-2.3v-10.7h-23v47
		h23V312.2z"/>
	<path display="inline" fill="#D7D7DC" d="M185.2,253.4c1.6-2.2,2.6-4.4,5.6-5.9v-80.6h-8v88h1C184.2,253.9,184.8,253.9,185.2,253.4
		z"/>
	<path display="inline" fill="#D7D7DC" d="M230,254.9h104.9v-102h-117v92.8C221.9,247.6,226.8,250.9,230,254.9z"/>
	<rect x="430.9" y="307.9" display="inline" fill="#D7D7DC" width="75" height="30"/>
	<rect x="635.9" y="307.9" display="inline" fill="#D7D7DC" width="51" height="30"/>
	<rect x="465.9" y="152.9" display="inline" fill="#D7D7DC" width="19" height="18"/>
	<rect x="433.9" y="152.9" display="inline" fill="#D7D7DC" width="27" height="18"/>
	<rect x="489.9" y="152.9" display="inline" fill="#D7D7DC" width="24" height="18"/>
	<rect x="433.9" y="11.9" display="inline" fill="#D7D7DC" width="45" height="33"/>
	<path display="inline" fill="#D7D7DC" d="M482.9,47.2c0,1.3-0.7,2.7-2,2.7h-0.3h-46.6v59h29.4h0.2h23.8h0.2h28h0.4h31v-97h-64V47.2
		z"/>
	<path display="inline" fill="#D7D7DC" d="M515.6,108.9c0.1,0,0.1,0,0.2,0h-0.4C515.5,108.9,515.6,108.9,515.6,108.9z"/>
	<rect x="465.9" y="112.9" display="inline" fill="#D7D7DC" width="19" height="15"/>
	<rect x="433.9" y="112.9" display="inline" fill="#D7D7DC" width="27" height="15"/>
	<rect x="489.9" y="112.9" display="inline" fill="#D7D7DC" width="24" height="15"/>
	<path display="inline" fill="#D7D7DC" d="M630.9,337.9v-30h-37.3c-0.2,0-0.7-0.5-0.7-0.5v30.5H630.9z"/>
	<path display="inline" fill="#D7D7DC" d="M589.9,302.8C589.9,302.7,589.9,302.7,589.9,302.8c-0.1,0-0.2,0-0.3,0
		c-0.7,0.3-1.4,0.9-1.7,1.6c0.3-0.3,0.6-0.6,0.9-0.9C589.2,303.1,589.5,302.9,589.9,302.8z"/>
	<path display="inline" fill="#D7D7DC" d="M538.6,307.9h-28.7v30h78v-27.3c-6,5.7-14.3,9-22.2,9
		C553.5,319.5,544.4,312.9,538.6,307.9z"/>
	<path display="inline" fill="#D7D7DC" d="M542.9,253.5c1.8-2.1,3-4.3,6-5.8v-30.8h-31v38h23.6C541.9,254.9,542.5,254,542.9,253.5z"
		/>
	<path display="inline" fill="#D7D7DC" d="M548.4,162.1c-2.7-2.5-5.5-5.2-7.5-9.2h-23v19.6v0.8v16.6h30.6L548.4,162.1z"/>
	<polygon display="inline" fill="#D7D7DC" points="513.9,192.3 513.9,192.1 513.9,174.9 487.5,174.9 487.2,174.9 463.5,174.9 
		463.2,174.9 433.9,174.9 433.9,254.9 513.9,254.9 513.9,214.5 513.9,213 	"/>
	<polygon display="inline" fill="#D7D7DC" points="517.9,194.9 517.9,211.9 518,211.9 548.9,211.9 548.9,194.9 	"/>
	<path display="inline" fill="#D7D7DC" d="M517.9,127.9h23.6c1.4-4,2.4-7.6,5.4-10.2v-4.8h-29V127.9z"/>
	<path display="inline" fill="#D7D7DC" d="M629.9,29.7V11.9h-78v99v3.9c4-2.5,9.1-3.8,14.2-3.8c15.2,0,27.4,12.7,27.4,28.4
		c0,11.1-6.6,21.1-16.6,25.7v80.5c7,2.5,12.8,8.3,15.6,11.3h89.4v-42.6c0-1.3,1.3-2.4,2.7-2.4h26.3v-180H632
		C630.7,31.9,629.9,31.1,629.9,29.7z"/>
</g>
<g id="Layer_2">
	<polygon fill="#708FA3" points="404.2,197.4 204.5,197.4 84.1,193.2 84.1,170 4.7,169.6 4.7,3.9 404.2,3.9 	"/>
	<path fill="#FFFFFF" d="M407.5,200.8l-203.2,0l-123.6-4.3l0-23.1L1.4,173V0.5h406.2V200.8z M204.5,194.1h196.3V7.2H8.1v159
		l79.4,0.4l0,23.3L204.5,194.1z"/>
	<rect x="750.2" y="12.6" fill="#5B7FAD" width="91.3" height="184.8"/>
	<path fill="#FFFFFF" d="M844.9,200.8h-98V9.3h98V200.8z M753.6,194.1h84.6V16h-84.6V194.1z"/>
	<rect x="404.2" y="8.1" fill="#123752" width="81.7" height="189.3"/>
	<path fill="#FFFFFF" d="M489.2,200.8h-88.4V4.8h88.4V200.8z M407.5,194.1h75V11.5h-75V194.1z"/>
	<polygon fill="#032236" points="404.2,285 232.2,230.5 232.2,198.4 404.2,198.4 	"/>
	<path fill="#FFFFFF" d="M407.5,289.6l-178.7-56.7V195h178.7V289.6z M235.5,228l165.3,52.4v-78.6H235.5V228z"/>
	<path fill="#9C9C9C" stroke="#9898A6" stroke-miterlimit="10" d="M485.9,211.1c0,73.1,59,131.9,131.8,131.9s131.8-58.5,131.8-131.6
		c0-1.4-0.1-8.9-0.1-11.9H486C486,203.4,485.9,209.6,485.9,211.1z"/>
	<path fill="#FFFFFF" d="M617.7,346.2c-36.1,0-70.1-14-95.6-39.5c-25.5-25.5-39.6-59.5-39.6-95.8c0-1.1,0-4.8,0.1-8.4l0.1-6.5h270.1
		l0,3.2c0,3.5,0.1,10.6,0.1,12c0,36.2-14.1,70.2-39.6,95.7C687.8,332.3,653.9,346.2,617.7,346.2z M489.3,202.9c0,3-0.1,7.1-0.1,8.2
		c0,70.9,57.6,128.5,128.5,128.5s128.5-57.4,128.5-128.2c0-1,0-5.5-0.1-8.5H489.3z"/>
	<path fill="#486F88" d="M483.9,5.9v189.8c0,0.5,2.1,2.5,2.1,4.2h0h263.4h-1.7V5.9H483.9z"/>
	<path fill="#FFFFFF" d="M749.9,202.9H482.6l0-3.1c-0.1-0.3-0.5-0.9-0.7-1.2c-0.6-0.8-1.1-1.6-1.1-2.9V2.9h270v197h-1V202.9z
		 M488.4,196.9h256.5V8.9h-258v185.9C486.9,195.3,488,195.9,488.4,196.9z"/>
</g>
</svg>
