<?xml version="1.0" encoding="utf-8"?>
<!-- Generator: Adobe Illustrator 18.1.1, SVG Export Plug-In . SVG Version: 6.00 Build 0)  -->
<svg version="1.1" xmlns="http://www.w3.org/2000/svg" xmlns:xlink="http://www.w3.org/1999/xlink" x="0px" y="0px"
	 viewBox="0 0 1024 1024" enable-background="new 0 0 1024 1024" xml:space="preserve">
<g id="Layer_2" display="none">
	
		<image display="inline" overflow="visible" width="1600" height="1600" xlink:href="7B34D856.jpg"  transform="matrix(1 0 0 1 -1693.2416 0)">
	</image>
</g>
<g id="Layer_3">
	<g>
		<polygon fill="#FFEBB2" points="1,1021.8 339.7,908 339.7,-1 1,112.7 		"/>
		<polygon fill="#FDDE80" points="677.5,1022.6 338.9,908.9 338.9,-0.2 677.5,113.6 		"/>
		<polygon fill="#FFEBB2" points="678.4,1022.6 1017.1,908.9 1017.1,-0.2 678.4,113.6 		"/>
	</g>
</g>
<g id="Layer_1">
	<g id="zegYDz_1_">
		<g>
			<path fill="#22459C" d="M318.5,285c1.9-21,1.1-44.6,1.6-67c11.9,0,23.8,0,35.6,0c0,136.5,0,273.1,0,409.7c-12.2,0-24.4,0-36.8,0
				c0-21.6,0-43.2,0-64.7c-7.2,22.6-19.3,40.3-36.8,53.7c-16.6,12.8-39.4,23.1-67.4,23.1c-28.8,0-52.8-11.8-70.2-26.3
				c-17.1-14.3-31.4-34.7-37.8-58.2c-14.6-53.7,4.7-113.6,24.1-156.3c15,9.7,28.4,20.9,42.7,31.3c-21-36.9-45.4-81.9-42.3-138.7
				c2.9-51.1,35.4-87.7,86.6-91.1c30.6-1.9,51.2,11.7,65.8,26.8C299.7,243.6,310.9,262.4,318.5,285z M263.2,251.6
				c-10.1-12.1-25-22.6-47.8-20.3c-27.9,2.9-50,33.1-46.6,66.4c1.1,10.9,5.3,23.5,8.8,35.1c17.9,58.7,49.9,96.3,74.6,147.5
				c9.8,20.6,21.3,45.8,18.1,69.7c-3.4,26.5-29.9,40.4-58.2,37.8c-22.1-2.1-36.8-11.9-44.4-23.1c-8.5-12.5-16.6-35.2-17.6-56
				c-1.1-23.8,3.5-43.5,5.5-68c-5.5,4.3-5,10.1-6.6,15.3c-5,17.5-10.2,36.3-8.8,58.7c1.6,25.9,10.3,44.7,21.9,59.8
				c11.5,15,28.6,27.1,52.7,28.6c40.2,2.4,62.2-18.4,65.8-53.2c3.9-37.1-12.2-69.2-25.2-93.8c-13.5-25.6-29.7-53.4-42.7-77.3
				c-13.9-25.4-31.4-57-31.3-89.3c0-10.4,2.9-22.6,7.1-29.6c9.4-15.5,32.8-19.1,52.1-9.8c21.7,10.4,32.9,36,37.8,64.2
				c1.7,9.8,5,21.9,3.3,28.6c-1.1,4.5-8.1,10.4-11.5,14.9c-4.3,5.6-7,10.6-10.4,14.9c-5.4-26.2-9.1-53.4-19.2-75.6
				c-2.2-4.7-8.2-17.9-15.9-15.9c-8.1,2.2-1.8,26.4,0,32.3c2.6,8.5,8.3,20.6,12.1,28.6c25.7,55.2,67.1,99.3,83.4,159.6
				c0-59.2,0-118.5,0-177.7c-8.2,2.4-15.1,6.1-23.5,8.2C290.2,303.4,280,271.7,263.2,251.6z M190.8,464.9
				c-2.5,11.2-4.5,23.8-4.3,36.2c0.1,21.8,9.3,40.3,21.9,47.8c5.3,3.1,16.1,5.7,20.8,0.6c4.7-5,1.1-19-1.1-25.8
				c-5.5-17.1-13-29.5-20.8-42.7c-3.9-6.5-7.9-13.8-14.3-17.6c0-0.3-0.1-0.7-0.6-0.6C191.3,462.9,190.9,464.5,190.8,464.9z"/>
			<path fill="#22459C" d="M468.9,217c9.1,0,18.3,0,27.4,0c-8.7,70.4-14.9,141.3-34.5,202.9c-2.5,8-6.5,18.6-11.5,28
				c-4.1,7.8-11.4,18.5-21.4,18.1c-17.6-0.8-26.8-33.4-31.3-47.2c-19.2-60.3-26.7-130.1-34.5-200.7c8.5,0,16.8,0,25.2,0
				c5.4,48.1,11.4,96.7,22.5,141c1.6,6.6,3.1,13.6,6.1,21.4c1.9,5.1,6.2,15.5,11,15.9c5.4,0.3,10.2-10.3,12.1-15.3
				c7.7-20,11.5-43.8,15.3-66.4c5.6-32.6,9.4-63.3,13.1-96C468.2,217.9,468.2,217.1,468.9,217z"/>
			<path fill="#22459C" d="M369,347c0.5-0.1,0.6,0.2,0.6,0.6c8.9,39.9,16.2,79.2,35.1,111.3c5.1,8.8,15,23.4,27.4,21.9
				c6.6-0.8,12.8-5.7,17-10.4c11.9-13.5,20.2-35.5,26.8-56.4c7-22.1,12.2-45.5,16.5-67c1.3,92.5,0.2,187.4,0.6,280.8
				c-11.9,0-23.8,0-35.6,0c0-36.3,0-72.8,0-109.1c-7.1,3.9-15.5,24.1-28,24.1c-11.4,0-18.7-16.8-26.3-21.9c0,35.6,0,71.3,0,106.9
				c-11.3,0-22.6,0-34,0C369,534.2,369,440.6,369,347z"/>
			<path fill="#22459C" d="M640.5,407.4c0,9.5,0,19,0,28.6c-6.1,88.2-43.2,156.5-92.1,202.3c-50,47-114.9,84.4-208.4,84.4
				c-91.6,0-161.3-36.9-209.5-83.4c-24.6-23.8-45-50.7-61.9-84.4c-16.1-32-28.9-72.9-31.3-116.3c0-11.5,0-23.1,0-34.5
				c5.3-84.3,43.9-152,89.3-197.4c47.5-47.5,112.5-80.4,198-86.6c9.5,0,19,0,28.6,0c83.9,4.8,151.7,41,199,88.3
				C599.6,255.6,635.6,322.8,640.5,407.4z M519.3,199.5c-45.5-37.7-110.7-67.8-196.3-63.6c-52.8,2.5-99.2,20.1-134.9,42.3
				c-35.9,22.2-66.4,53.1-88.9,86.6c-23.8,35.4-39.9,77.9-45,130.5c-4.9,51.8,6.1,106,25.4,147c36.2,77,106,137.2,193.5,157.4
				c51.2,11.8,108.9,7.9,153.6-6.6c41.9-13.6,75.4-34.6,104.2-60.3c1.3-1.1,5.3-2.1,3.9-4.9c-9.7,0-19.4,0-29,0
				c0-136.9,0-273.9,0-410.7c10.6,0,21.3,0,31.8,0C532.6,210.3,525.8,204.8,519.3,199.5z M542.4,621.8
				c45.2-43.3,82.3-112.5,82.3-199c0-93.8-38.7-157.6-85.6-205.1c0-0.6-0.7-0.5-0.6,0.6c0,135.5,0,270.9,0,406.4
				C540.5,625.3,541.3,622.7,542.4,621.8z"/>
		</g>
	</g>
</g>
</svg>
