<?xml version="1.0" encoding="utf-8"?>
<!-- Generator: Adobe Illustrator 18.1.1, SVG Export Plug-In . SVG Version: 6.00 Build 0)  -->
<svg version="1.1" id="Layer_3" xmlns="http://www.w3.org/2000/svg" xmlns:xlink="http://www.w3.org/1999/xlink" x="0px" y="0px"
	 viewBox="0 249.3 595.3 344.5" enable-background="new 0 249.3 595.3 344.5" xml:space="preserve">
<path fill="#FFCD05" d="M348.2,428.9c-0.2-2-0.3-4.1-0.3-6.2c0-4.2,0.4-8.3,1.1-12.3V279.9H249v149H348.2z"/>
<path fill="#9DC912" d="M349,487c8,59.1,58.7,104.7,120,104.7c64.1,0,116.6-49.8,120.8-112.9H349V487z"/>
<path fill="none" stroke="#000000" stroke-width="0.9793" stroke-miterlimit="10" d="M348.2,478.9h0.8v-24.6
	c-0.7,5.4-1.1,10.8-1.1,16.4C347.9,473.4,348,476.2,348.2,478.9z"/>
<rect x="249" y="428.9" fill="#AA1EB3" width="100" height="50"/>
<polygon fill="#F31978" points="534.9,279.9 532,290.4 515.5,290.4 512.6,279.9 349,279.9 349,419.6 358.9,422.7 358.9,441.9 
	349,445 349,454.3 349,478.9 458.6,478.9 461,470.1 477.5,470.1 479.9,478.9 589.8,478.9 590.3,478.9 590.3,279.9 "/>
<polygon fill="#2199A7" points="240.5,422.7 249,420 249,279.9 78.4,279.9 75.5,290.4 59,290.4 56.1,279.9 6.1,279.9 6.1,454.3 
	51,454.3 51,478.9 99.1,478.9 101,471.9 117.5,471.9 119.4,478.9 124.5,478.9 249,478.9 249,444.6 240.5,441.9 "/>
<polygon fill="#164DBC" points="124.5,554.9 249,568.9 249,488.9 249,478.9 124.5,478.9 "/>
</svg>
